<?xml version="1.0" encoding="utf-8"?>
<!-- Generator: Adobe Illustrator 22.0.0, SVG Export Plug-In . SVG Version: 6.00 Build 0)  -->
<svg version="1.1" id="Livello_1" xmlns="http://www.w3.org/2000/svg" xmlns:xlink="http://www.w3.org/1999/xlink" x="0px" y="0px"
	 viewBox="0 0 148.5 169.4" style="enable-background:new 0 0 148.5 169.4;" xml:space="preserve">
<style type="text/css">
	.st0{fill:#375A64;}
	.st1{fill:#00EFAB;}
	.st2{fill:none;}
</style>
<g>
	<polygon class="st0" points="73.8,169.8 0.3,127.3 0.3,42.4 73.8,0 147.3,42.4 147.3,127.3 	"/>
	<g>
		<polygon class="st0" points="73.8,6.7 73.8,163 141.5,124 141.5,45.8 		"/>
		<polygon class="st1" points="6.1,45.8 6.1,124 73.8,163 73.8,6.7 		"/>
	</g>
	<g>
		<rect x="35.5" y="105" class="st0" width="6.8" height="42"/>
	</g>
	<g>
		<polygon class="st2" points="105.2,103.1 105.2,66.7 73.8,48.5 73.8,121.2 		"/>
		<polygon class="st2" points="42.3,66.7 42.3,103.1 73.8,121.2 73.8,121.2 73.8,48.5 73.8,48.5 		"/>
		<polygon class="st1" points="112,62.8 73.8,40.7 73.8,48.5 105.2,66.7 105.2,103.1 73.8,121.2 73.8,129 112,107 		"/>
		<polygon class="st0" points="73.8,121.2 42.3,103.1 42.3,66.7 73.8,48.5 73.8,48.5 73.8,40.7 73.8,40.7 35.5,62.8 35.5,107 
			73.8,129 73.8,129 73.8,121.2 		"/>
	</g>
</g>
</svg>
