<?xml version="1.0" encoding="iso-8859-1"?>
<!-- Generator: Adobe Illustrator 19.0.0, SVG Export Plug-In . SVG Version: 6.00 Build 0)  -->
<svg version="1.1" id="Capa_1" xmlns="http://www.w3.org/2000/svg" xmlns:xlink="http://www.w3.org/1999/xlink" x="0px" y="0px"
	 viewBox="0 0 512 512" style="enable-background:new 0 0 512 512;" xml:space="preserve">
<path style="fill:#7383BF;" d="M187.733,358.4c-2.185,0-4.369-0.836-6.033-2.5c-3.337-3.337-3.337-8.73,0-12.066l82.833-82.833
	c3.337-3.337,8.73-3.337,12.066,0s3.337,8.73,0,12.066L193.766,355.9C192.102,357.564,189.918,358.4,187.733,358.4z"/>
<g>
	<path style="fill:#43576D;" d="M85.333,145.067H51.2V25.6c0-9.429,7.637-17.067,17.067-17.067l0,0
		c9.429,0,17.067,7.637,17.067,17.067V145.067z"/>
	<path style="fill:#43576D;" d="M460.8,145.067h-34.133V25.6c0-9.429,7.637-17.067,17.067-17.067l0,0
		c9.429,0,17.067,7.637,17.067,17.067V145.067z"/>
</g>
<path style="fill:#28384C;" d="M486.426,281.6H25.574c-9.412,0-17.041-7.629-17.041-17.041V162.108
	c0-9.412,7.629-17.041,17.041-17.041h460.851c9.412,0,17.041,7.629,17.041,17.041v102.451
	C503.467,273.971,495.838,281.6,486.426,281.6z"/>
<rect x="332.8" y="179.2" style="fill:#FFFFFF;" width="136.533" height="68.267"/>
<g>
	<path style="fill:#23A24D;" d="M384,221.867h-17.067c-4.71,0-8.533-3.814-8.533-8.533s3.823-8.533,8.533-8.533H384
		c4.71,0,8.533,3.814,8.533,8.533S388.71,221.867,384,221.867z"/>
	<path style="fill:#23A24D;" d="M435.2,221.867h-17.067c-4.71,0-8.533-3.814-8.533-8.533s3.823-8.533,8.533-8.533H435.2
		c4.71,0,8.533,3.814,8.533,8.533S439.91,221.867,435.2,221.867z"/>
</g>
<path style="fill:#DD352E;" d="M42.667,256c-4.71,0-8.533-3.814-8.533-8.533V179.2c0-4.719,3.823-8.533,8.533-8.533
	s8.533,3.814,8.533,8.533v68.267C51.2,252.186,47.377,256,42.667,256z"/>
<path style="fill:#EBBA16;" d="M76.8,204.8c-4.71,0-8.533-3.814-8.533-8.533V179.2c0-4.719,3.823-8.533,8.533-8.533
	s8.533,3.814,8.533,8.533v17.067C85.333,200.986,81.51,204.8,76.8,204.8z"/>
<g>
	<path style="fill:#DC691D;" d="M76.8,256c-4.71,0-8.533-3.814-8.533-8.533V230.4c0-4.719,3.823-8.533,8.533-8.533
		s8.533,3.814,8.533,8.533v17.067C85.333,252.186,81.51,256,76.8,256z"/>
	<path style="fill:#DC691D;" d="M145.067,204.8c-4.71,0-8.533-3.814-8.533-8.533V179.2c0-4.719,3.823-8.533,8.533-8.533
		c4.71,0,8.533,3.814,8.533,8.533v17.067C153.6,200.986,149.777,204.8,145.067,204.8z"/>
</g>
<path style="fill:#DD352E;" d="M145.067,256c-4.71,0-8.533-3.814-8.533-8.533V230.4c0-4.719,3.823-8.533,8.533-8.533
	c4.71,0,8.533,3.814,8.533,8.533v17.067C153.6,252.186,149.777,256,145.067,256z"/>
<path style="fill:#ED8A19;" d="M110.933,256c-4.71,0-8.533-3.814-8.533-8.533V179.2c0-4.719,3.823-8.533,8.533-8.533
	c4.71,0,8.533,3.814,8.533,8.533v68.267C119.467,252.186,115.644,256,110.933,256z"/>
<path d="M196.267,221.867H179.2c-4.71,0-8.533-3.814-8.533-8.533s3.823-8.533,8.533-8.533h17.067c4.71,0,8.533,3.814,8.533,8.533
	S200.977,221.867,196.267,221.867z"/>
<path d="M298.667,221.867H281.6c-4.71,0-8.533-3.814-8.533-8.533s3.823-8.533,8.533-8.533h17.067c4.71,0,8.533,3.814,8.533,8.533
	S303.377,221.867,298.667,221.867z"/>
<path d="M247.467,221.867H230.4c-4.71,0-8.533-3.814-8.533-8.533s3.823-8.533,8.533-8.533h17.067c4.71,0,8.533,3.814,8.533,8.533
	S252.177,221.867,247.467,221.867z"/>
<path d="M196.267,256H179.2c-4.71,0-8.533-3.814-8.533-8.533c0-4.719,3.823-8.533,8.533-8.533h17.067
	c4.71,0,8.533,3.814,8.533,8.533C204.8,252.186,200.977,256,196.267,256z"/>
<path d="M298.667,256H281.6c-4.71,0-8.533-3.814-8.533-8.533c0-4.719,3.823-8.533,8.533-8.533h17.067
	c4.71,0,8.533,3.814,8.533,8.533C307.2,252.186,303.377,256,298.667,256z"/>
<path d="M247.467,256H230.4c-4.71,0-8.533-3.814-8.533-8.533c0-4.719,3.823-8.533,8.533-8.533h17.067
	c4.71,0,8.533,3.814,8.533,8.533C256,252.186,252.177,256,247.467,256z"/>
<path d="M196.267,187.733H179.2c-4.71,0-8.533-3.814-8.533-8.533s3.823-8.533,8.533-8.533h17.067c4.71,0,8.533,3.814,8.533,8.533
	S200.977,187.733,196.267,187.733z"/>
<path d="M298.667,187.733H281.6c-4.71,0-8.533-3.814-8.533-8.533s3.823-8.533,8.533-8.533h17.067c4.71,0,8.533,3.814,8.533,8.533
	S303.377,187.733,298.667,187.733z"/>
<path d="M247.467,187.733H230.4c-4.71,0-8.533-3.814-8.533-8.533s3.823-8.533,8.533-8.533h17.067c4.71,0,8.533,3.814,8.533,8.533
	S252.177,187.733,247.467,187.733z"/>
<g>
	<path style="fill:#23A24D;" d="M349.867,110.933c-4.71,0-8.533-3.814-8.533-8.533c0-47.053-38.281-85.333-85.333-85.333
		s-85.333,38.281-85.333,85.333c0,4.719-3.823,8.533-8.533,8.533s-8.533-3.814-8.533-8.533C153.6,45.935,199.535,0,256,0
		s102.4,45.935,102.4,102.4C358.4,107.119,354.577,110.933,349.867,110.933z"/>
	<path style="fill:#23A24D;" d="M315.733,110.933c-4.71,0-8.533-3.814-8.533-8.533c0-28.237-22.963-51.2-51.2-51.2
		s-51.2,22.963-51.2,51.2c0,4.719-3.823,8.533-8.533,8.533s-8.533-3.814-8.533-8.533c0-37.641,30.626-68.267,68.267-68.267
		s68.267,30.626,68.267,68.267C324.267,107.119,320.444,110.933,315.733,110.933z"/>
	<path style="fill:#23A24D;" d="M281.6,110.933c-4.71,0-8.533-3.814-8.533-8.533c0-9.412-7.654-17.067-17.067-17.067
		c-9.412,0-17.067,7.654-17.067,17.067c0,4.719-3.823,8.533-8.533,8.533s-8.533-3.814-8.533-8.533
		c0-18.825,15.309-34.133,34.133-34.133c18.825,0,34.133,15.309,34.133,34.133C290.133,107.119,286.31,110.933,281.6,110.933z"/>
</g>
<g>
	<path style="fill:#7383BF;" d="M213.333,469.333H8.533c-4.71,0-8.533-3.814-8.533-8.533c0-4.719,3.823-8.533,8.533-8.533h204.8
		c4.71,0,8.533,3.814,8.533,8.533C221.867,465.519,218.044,469.333,213.333,469.333z"/>
	<path style="fill:#7383BF;" d="M503.467,469.333h-204.8c-4.71,0-8.533-3.814-8.533-8.533c0-4.719,3.823-8.533,8.533-8.533h204.8
		c4.71,0,8.533,3.814,8.533,8.533C512,465.519,508.177,469.333,503.467,469.333z"/>
	<path style="fill:#7383BF;" d="M256,426.667c-2.185,0-4.369-0.836-6.033-2.5c-3.337-3.337-3.337-8.73,0-12.066l68.267-68.267
		c3.337-3.337,8.73-3.337,12.066,0c3.337,3.337,3.337,8.73,0,12.066l-68.267,68.267C260.369,425.83,258.185,426.667,256,426.667z"/>
</g>
<g>
	<rect x="42.667" y="281.6" style="fill:#43576D;" width="51.2" height="34.133"/>
	<rect x="418.133" y="281.6" style="fill:#43576D;" width="51.2" height="34.133"/>
</g>
<path style="fill:#61B872;" d="M196.267,187.733H179.2c-4.71,0-8.533-3.814-8.533-8.533s3.823-8.533,8.533-8.533h17.067
	c4.71,0,8.533,3.814,8.533,8.533S200.977,187.733,196.267,187.733z"/>
<path style="fill:#CB465F;" d="M298.667,187.733H281.6c-4.71,0-8.533-3.814-8.533-8.533s3.823-8.533,8.533-8.533h17.067
	c4.71,0,8.533,3.814,8.533,8.533S303.377,187.733,298.667,187.733z"/>
<path style="fill:#7383BF;" d="M247.467,187.733H230.4c-4.71,0-8.533-3.814-8.533-8.533s3.823-8.533,8.533-8.533h17.067
	c4.71,0,8.533,3.814,8.533,8.533S252.177,187.733,247.467,187.733z"/>
<path style="fill:#75348B;" d="M196.267,221.867H179.2c-4.71,0-8.533-3.814-8.533-8.533s3.823-8.533,8.533-8.533h17.067
	c4.71,0,8.533,3.814,8.533,8.533S200.977,221.867,196.267,221.867z"/>
<path style="fill:#FC3952;" d="M298.667,221.867H281.6c-4.71,0-8.533-3.814-8.533-8.533s3.823-8.533,8.533-8.533h17.067
	c4.71,0,8.533,3.814,8.533,8.533S303.377,221.867,298.667,221.867z"/>
<path style="fill:#ED8A19;" d="M247.467,221.867H230.4c-4.71,0-8.533-3.814-8.533-8.533s3.823-8.533,8.533-8.533h17.067
	c4.71,0,8.533,3.814,8.533,8.533S252.177,221.867,247.467,221.867z"/>
<path style="fill:#1081E0;" d="M196.267,256H179.2c-4.71,0-8.533-3.814-8.533-8.533c0-4.719,3.823-8.533,8.533-8.533h17.067
	c4.71,0,8.533,3.814,8.533,8.533C204.8,252.186,200.977,256,196.267,256z"/>
<path style="fill:#A485BE;" d="M298.667,256H281.6c-4.71,0-8.533-3.814-8.533-8.533c0-4.719,3.823-8.533,8.533-8.533h17.067
	c4.71,0,8.533,3.814,8.533,8.533C307.2,252.186,303.377,256,298.667,256z"/>
<path style="fill:#57D8AB;" d="M247.467,256H230.4c-4.71,0-8.533-3.814-8.533-8.533c0-4.719,3.823-8.533,8.533-8.533h17.067
	c4.71,0,8.533,3.814,8.533,8.533C256,252.186,252.177,256,247.467,256z"/>
<path style="fill:#DD352E;" d="M256,512c-28.237,0-51.2-22.963-51.2-51.2s22.963-51.2,51.2-51.2s51.2,22.963,51.2,51.2
	S284.237,512,256,512z"/>
<g>
</g>
<g>
</g>
<g>
</g>
<g>
</g>
<g>
</g>
<g>
</g>
<g>
</g>
<g>
</g>
<g>
</g>
<g>
</g>
<g>
</g>
<g>
</g>
<g>
</g>
<g>
</g>
<g>
</g>
</svg>
