<?xml version="1.0" encoding="utf-8"?>
<!-- Generator: Adobe Illustrator 22.0.0, SVG Export Plug-In . SVG Version: 6.00 Build 0)  -->
<svg version="1.1" id="Livello_1" xmlns="http://www.w3.org/2000/svg" xmlns:xlink="http://www.w3.org/1999/xlink" x="0px" y="0px"
	 viewBox="0 0 147.5 169.6" style="enable-background:new 0 0 147.5 169.6;" xml:space="preserve">
<style type="text/css">
	.st0{fill:none;}
</style>
<g>
	<g>
		<path d="M74,9.4l65.5,37.8v75.7L74,160.8L8.5,122.9V47.2L74,9.4 M74,0.2L0.5,42.6v84.9L74,170l73.5-42.5V42.6L74,0.2L74,0.2z"/>
	</g>
	<g>
	</g>
	<g>
		<rect x="35.7" y="105.2" width="6.8" height="42"/>
	</g>
	<g>
		<polygon class="st0" points="105.4,103.3 105.4,66.9 74,48.7 74,121.4 		"/>
		<polygon class="st0" points="42.5,66.9 42.5,103.3 74,121.4 74,121.4 74,48.7 74,48.7 		"/>
		<polygon points="112.2,63 74,40.9 74,48.7 105.4,66.9 105.4,103.3 74,121.4 74,129.2 112.2,107.2 		"/>
		<polygon points="74,121.4 42.5,103.3 42.5,66.9 74,48.7 74,48.7 74,40.9 74,40.9 35.7,63 35.7,107.2 74,129.2 74,129.2 		"/>
	</g>
</g>
</svg>
